<svg width="182" height="40" viewBox="0 0 182 40" fill="none" xmlns="http://www.w3.org/2000/svg"><path d="M3.44 7.16c-.153-.658-.902-1.193-1.56-1.193H0V.738h16.344v5.229h-3.486l4.22 18.438h.107L23.055.753h6.927l5.825 23.652h.107L39.568 9.5c.596-2.385.244-3.532-1.804-3.532h-1.407V.738H50.79v5.229h-1.453c-.749 0-1.65.642-1.91 1.498l-7.324 28.07h-9.83l-4.91-19.875h-.107L20.35 35.536h-9.847L3.44 7.159zm45.683 11.176c0-11.574 6.62-18.041 17.46-18.041 2.553 0 4.618.244 5.718.443h6.727v11.436h-6.222l-.948-5.076c-.948-.351-2.462-.642-4.266-.642-4.861 0-8.332 3.226-8.332 11.482 0 7.904 2.354 12.124 7.415 12.124 1.758 0 2.706-.153 3.715-.443v-6.116h-3.012v-5.076h14.647v5.122h-.994c-.703 0-1.406.902-1.406 1.498v10.489h-4.862s-.459-1.04-1.407-1.04c-1.804.902-4.22 1.498-7.277 1.498-10.978-.015-16.956-6.238-16.956-17.658zm36.021 4.174V7.403c0-.596-.703-1.437-1.407-1.437h-1.65V.738H98.49v5.229h-3.76V23.06c0 5.274 2.155 6.91 6.115 6.91 4.005 0 6.161-1.636 6.161-6.91V5.967h-3.715V.738h13.836v5.229h-1.605c-.657 0-1.406.84-1.406 1.437v15.105c0 8.792-4.572 13.424-14.341 13.424-9.617-.015-14.632-4.632-14.632-13.424zm89.761-12.186l-2.935 2.4s0 .016.015.016a10.361 10.361 0 0 1 2.401 6.62c0 5.749-4.709 10.412-10.504 10.412-2.691 0-5.275-1.04-7.216-2.86v-4.28a7.726 7.726 0 0 0 6.971 4.372c4.266 0 7.721-3.44 7.721-7.66 0-3.118-1.895-5.794-4.586-6.986.03-.016.076-.031.107-.046 1.574-.75 2.538-1.422 2.538-1.422L181.663.906c-2.905-.84-6.819-1.162-10.335-.673-4.648.643-8.593 2.324-8.593 2.324C159.005.983 156.696.51 152.11.463c-4.587.046-6.896.52-10.626 2.094 0 0-3.945-1.666-8.593-2.324-3.516-.489-7.43-.183-10.335.673l12.246 9.984s.964.673 2.538 1.422c.062.03.107.046.169.076-2.661 1.208-4.526 3.868-4.526 6.957 0 4.22 3.471 7.66 7.721 7.66a7.77 7.77 0 0 0 6.788-3.991v-7.323c0 .015.016.015.016.03 0-.046-.016-.076-.016-.122v-.03a2.304 2.304 0 0 1 2.309-2.294 2.304 2.304 0 0 1 2.309 2.293V33.35l-4.465-4.357-.871-.887c-1.453 1.392-3.165 1.667-5.81 1.667-5.795 0-10.504-4.679-10.504-10.412 0-2.813.536-4.617 2.08-6.314l-2.92-2.416c-2.034 2.354-2.951 5.076-2.951 8.73 0 7.813 6.421 14.173 14.31 14.173 1.208 0 2.492-.046 3.777-.306A2827.93 2827.93 0 0 0 152.385 40l7.812-6.972c1.208.321 2.447.505 3.716.505 7.889 0 14.31-6.36 14.31-14.173a14.444 14.444 0 0 0-3.318-9.036zm-11.191 4.403c.795 0 1.529.214 2.171.566a2.278 2.278 0 0 0-.321-.03c-1.437 0-2.599 1.146-2.599 2.568 0 1.422 1.162 2.569 2.599 2.569a2.585 2.585 0 0 0 2.568-2.309c.107.382.184.795.184 1.208 0 2.523-2.064 4.571-4.617 4.571-2.554 0-4.618-2.049-4.618-4.571 0-2.523 2.095-4.572 4.633-4.572zm-22.949 9.143c-2.553 0-4.617-2.049-4.617-4.571 0-2.523 2.064-4.572 4.617-4.572.795 0 1.529.214 2.171.566a2.278 2.278 0 0 0-.321-.03c-1.437 0-2.599 1.146-2.599 2.568 0 1.422 1.162 2.569 2.599 2.569a2.586 2.586 0 0 0 2.569-2.309c.107.382.183.795.183 1.208.015 2.523-2.049 4.571-4.602 4.571z" fill="#fff"/></svg>