<svg width="181" height="40" viewBox="0 0 181 40" fill="none" xmlns="http://www.w3.org/2000/svg"><path d="M174.187 10.324l-2.905 2.4s0 .016.015.016a10.416 10.416 0 0 1 2.37 6.62c0 5.749-4.678 10.412-10.412 10.412-2.66 0-5.229-1.04-7.155-2.86v-4.28c1.238 2.584 3.853 4.372 6.895 4.372 4.22 0 7.66-3.44 7.66-7.66 0-3.118-1.88-5.794-4.556-6.986.031-.016.076-.031.107-.046 1.559-.75 2.507-1.422 2.507-1.422l12.14-9.984c-2.875-.84-6.758-1.162-10.244-.673-4.602.643-8.516 2.324-8.516 2.324-3.7-1.574-5.978-2.048-10.534-2.094-4.541.046-6.819.52-10.534 2.094 0 0-3.914-1.666-8.516-2.324-3.486-.489-7.369-.183-10.243.673l12.139 9.984s.963.673 2.507 1.422c.062.03.107.046.169.076-2.645 1.208-4.495 3.868-4.495 6.957 0 4.22 3.44 7.66 7.659 7.66 2.89 0 5.413-1.621 6.712-3.991v-7.323c0 .015.015.015.015.03 0-.046-.015-.076-.015-.122v-.03a2.29 2.29 0 0 1 2.294-2.294 2.29 2.29 0 0 1 2.293 2.293V33.35l-4.419-4.357-.856-.887c-1.437 1.392-3.134 1.667-5.748 1.667-5.749 0-10.412-4.679-10.412-10.412 0-2.813.535-4.617 2.049-6.314l-2.89-2.416c-2.003 2.354-2.92 5.076-2.92 8.73 0 7.813 6.36 14.173 14.173 14.173 1.192 0 2.461-.046 3.73-.306 1.896 1.712 7.553 6.773 7.553 6.773l7.736-6.972c1.193.321 2.431.505 3.685.505 7.812 0 14.172-6.36 14.172-14.173a13.827 13.827 0 0 0-3.21-9.036c.015 0 .015 0 0 0zm-11.176 4.388c.611 0 1.192.122 1.727.337a3.09 3.09 0 0 0-.657-.062 3.276 3.276 0 0 0-3.272 3.272 3.276 3.276 0 0 0 3.272 3.272 3.276 3.276 0 0 0 3.272-3.272c0-.23-.031-.459-.077-.688.23.55.352 1.147.352 1.774a4.655 4.655 0 0 1-4.648 4.648 4.656 4.656 0 0 1-4.648-4.648c.031-2.554 2.125-4.633 4.679-4.633zm-22.704 9.28a4.655 4.655 0 0 1-4.648-4.647 4.655 4.655 0 0 1 4.648-4.648 4.72 4.72 0 0 1 1.972.443 3.665 3.665 0 0 0-1.009-.153 3.276 3.276 0 0 0-3.272 3.272 3.276 3.276 0 0 0 3.272 3.272 3.276 3.276 0 0 0 3.272-3.272 3.39 3.39 0 0 0-.245-1.254c.397.689.642 1.483.642 2.34 0 2.568-2.079 4.648-4.632 4.648zM50.652.509H36.25v5.26h1.407c2.048 0 2.4 1.146 1.804 3.546L35.807 24.33H35.7L29.89.524h-6.91l-5.841 23.79h-.107L12.827 5.753h3.471V.509H0v5.26h1.88c.658 0 1.407.55 1.545 1.207l7.048 28.56h9.8l4.908-20.014h.107l4.908 20.014h9.8l7.308-28.27c.245-.856 1.147-1.498 1.896-1.498h1.452V.508zM67.21 23.412h2.997v6.146c-.994.305-1.957.443-3.7.443-5.046 0-7.4-4.25-7.4-12.2 0-8.302 3.455-11.559 8.302-11.559 1.804 0 3.302.306 4.25.657l.948 5.107h6.207V.509h-6.696c-1.1-.2-3.15-.444-5.703-.444-10.81 0-17.414 6.498-17.414 18.164 0 11.512 5.947 17.765 16.91 17.765 3.057 0 5.458-.596 7.246-1.498.948 0 1.407 1.055 1.407 1.055h4.847V25c0-.596.703-1.498 1.406-1.498h.994V18.35h-14.6v5.06zm35.822-17.659h3.7v17.215c0 5.305-2.156 6.957-6.146 6.957-3.945 0-6.1-1.652-6.1-6.957V5.753h3.745V.509H81.872v5.26h1.651c.704 0 1.407.855 1.407 1.452v15.212c0 8.852 5 13.5 14.6 13.5 9.755 0 14.311-4.648 14.311-13.5V7.205c0-.596.75-1.452 1.407-1.452h1.605V.509h-13.806v5.244h-.015z" fill="#002A4E"/></svg>